<?xml version="1.0" encoding="UTF-8" standalone="no"?>
<svg
   xmlns:dc="http://purl.org/dc/elements/1.1/"
   xmlns:cc="http://creativecommons.org/ns#"
   xmlns:rdf="http://www.w3.org/1999/02/22-rdf-syntax-ns#"
   xmlns:svg="http://www.w3.org/2000/svg"
   xmlns="http://www.w3.org/2000/svg"
   xmlns:sodipodi="http://sodipodi.sourceforge.net/DTD/sodipodi-0.dtd"
   xmlns:inkscape="http://www.inkscape.org/namespaces/inkscape"
   version="1.1"
   id="Layer_1"
   x="0px"
   y="0px"
   width="1024"
   height="1024"
   viewBox="300 260 1024 1023.9999"
   enable-background="new 0 0 841.89 595.28"
   xml:space="preserve"
   sodipodi:docname="adaptive-icon.svg"
   inkscape:version="1.0beta2 (2b71d25, 2019-12-03)"><metadata
   id="metadata1012"><rdf:RDF><cc:Work
       rdf:about=""><dc:format>image/svg+xml</dc:format><dc:type
         rdf:resource="http://purl.org/dc/dcmitype/StillImage" /><dc:title></dc:title></cc:Work></rdf:RDF></metadata><defs
   id="defs1010" /><sodipodi:namedview
   pagecolor="#ffffff"
   bordercolor="#666666"
   inkscape:document-rotation="0"
   borderopacity="1"
   objecttolerance="10"
   gridtolerance="10"
   guidetolerance="10"
   inkscape:pageopacity="0"
   inkscape:pageshadow="2"
   inkscape:window-width="1509"
   inkscape:window-height="1104"
   id="namedview1008"
   showgrid="false"
   inkscape:zoom="0.39911952"
   inkscape:cx="318.06653"
   inkscape:cy="565.71007"
   inkscape:window-x="0"
   inkscape:window-y="25"
   inkscape:window-maximized="0"
   inkscape:current-layer="Layer_1" />
<g
   id="g851">
	
	
	
	
	
	
	
	
	
</g>

<g
   id="g1005"
   transform="matrix(15.169821,0,0,15.169821,-4161.8649,-3713.7126)">
	<path
   fill="#03E2F9"
   stroke="#03E2F9"
   stroke-width="0.5"
   stroke-miterlimit="10"
   d="m 329.525,322.752 c -0.05,-0.797 0.556,-1.486 1.354,-1.535 0.8,-0.052 1.486,0.555 1.537,1.352 0.052,0.801 -0.555,1.487 -1.354,1.538 -0.797,0.049 -1.485,-0.556 -1.537,-1.355 z"
   id="path929"
   inkscape:connector-curvature="0" />
	<circle
   fill="#03E2F9"
   stroke="#03E2F9"
   stroke-width="0.5"
   stroke-miterlimit="10"
   cx="332.146"
   cy="314.836"
   r="1.177"
   id="circle931" />
	<path
   fill="#03E2F9"
   stroke="#03E2F9"
   stroke-width="0.5"
   stroke-miterlimit="10"
   d="m 309.524,319.696 c -0.021,-0.798 0.611,-1.463 1.408,-1.482 0.803,-0.021 1.467,0.61 1.485,1.411 0.022,0.799 -0.608,1.463 -1.409,1.484 -0.798,0.02 -1.464,-0.611 -1.484,-1.413 z"
   id="path933"
   inkscape:connector-curvature="0" />
	<circle
   fill="#03E2F9"
   stroke="#03E2F9"
   stroke-width="0.5"
   stroke-miterlimit="10"
   cx="331.17099"
   cy="309.98001"
   r="0.95499998"
   id="circle935" />
	<path
   fill="#03E2F9"
   stroke="#03E2F9"
   stroke-width="0.5"
   stroke-miterlimit="10"
   d="m 330.499,279.843 c -0.04,-0.624 0.435,-1.165 1.059,-1.206 0.628,-0.039 1.168,0.436 1.208,1.063 0.039,0.625 -0.437,1.166 -1.062,1.205 -0.626,0.038 -1.166,-0.437 -1.205,-1.062 z"
   id="path937"
   inkscape:connector-curvature="0" />
	<circle
   fill="#03E2F9"
   stroke="#03E2F9"
   stroke-width="0.5"
   stroke-miterlimit="10"
   cx="321.995"
   cy="305.797"
   r="1.136"
   id="circle939" />
	<circle
   fill="#03E2F9"
   stroke="#03E2F9"
   stroke-width="0.5"
   stroke-miterlimit="10"
   cx="327.90399"
   cy="307.49399"
   r="1.135"
   id="circle941" />
	<circle
   fill="#03E2F9"
   stroke="#03E2F9"
   stroke-width="0.5"
   stroke-miterlimit="10"
   cx="338.31201"
   cy="310.35699"
   r="1.447"
   id="circle943" />
	<circle
   fill="#03E2F9"
   stroke="#03E2F9"
   stroke-width="0.5"
   stroke-miterlimit="10"
   cx="339.47198"
   cy="291.91199"
   r="1.63"
   id="circle945" />
	<circle
   fill="#03E2F9"
   stroke="#03E2F9"
   stroke-width="0.5"
   stroke-miterlimit="10"
   cx="323.293"
   cy="289.29401"
   r="1.136"
   id="circle947" />
	<circle
   fill="#03E2F9"
   stroke="#03E2F9"
   stroke-width="0.5"
   stroke-miterlimit="10"
   cx="324.89999"
   cy="309.13501"
   r="1.177"
   id="circle949" />
	<path
   fill="#03E2F9"
   stroke="#03E2F9"
   stroke-width="0.5"
   stroke-miterlimit="10"
   d="m 335.888,266.335 c -0.509,-0.138 -0.808,-0.667 -0.666,-1.174 0.138,-0.509 0.666,-0.809 1.173,-0.669 0.511,0.139 0.811,0.669 0.669,1.176 -0.14,0.51 -0.666,0.809 -1.176,0.667 z"
   id="path951"
   inkscape:connector-curvature="0" />
	<path
   fill="#03E2F9"
   stroke="#03E2F9"
   stroke-width="0.5"
   stroke-miterlimit="10"
   d="m 315.169,303.506 c -0.602,-0.166 -0.957,-0.792 -0.792,-1.396 0.167,-0.604 0.792,-0.961 1.398,-0.793 0.603,0.167 0.958,0.792 0.791,1.396 -0.165,0.603 -0.791,0.959 -1.397,0.793 z"
   id="path953"
   inkscape:connector-curvature="0" />
	<path
   fill="#03E2F9"
   stroke="#03E2F9"
   stroke-width="0.5"
   stroke-miterlimit="10"
   d="m 324.883,321.459 c 0.108,0.641 -0.319,1.25 -0.961,1.361 -0.638,0.113 -1.248,-0.316 -1.359,-0.955 -0.112,-0.641 0.316,-1.252 0.954,-1.363 0.641,-0.111 1.252,0.316 1.366,0.957 z"
   id="path955"
   inkscape:connector-curvature="0" />
	<circle
   fill="#03E2F9"
   stroke="#03E2F9"
   stroke-width="0.5"
   stroke-miterlimit="10"
   cx="321.80701"
   cy="299.258"
   r="0.95599997"
   id="circle957" />
	<path
   fill="#03E2F9"
   stroke="#03E2F9"
   stroke-width="0.5"
   stroke-miterlimit="10"
   d="m 344.239,272.925 c 0.108,0.616 -0.306,1.206 -0.923,1.313 -0.617,0.107 -1.205,-0.306 -1.315,-0.922 -0.105,-0.617 0.306,-1.206 0.922,-1.314 0.619,-0.107 1.208,0.306 1.316,0.923 z"
   id="path959"
   inkscape:connector-curvature="0" />
	<path
   fill="#03E2F9"
   stroke="#03E2F9"
   stroke-width="0.5"
   stroke-miterlimit="10"
   d="m 328.415,301.727 c 0.522,0.082 0.877,0.574 0.792,1.095 -0.084,0.521 -0.572,0.876 -1.096,0.794 -0.52,-0.084 -0.874,-0.577 -0.791,-1.096 0.081,-0.522 0.575,-0.878 1.095,-0.793 z"
   id="path961"
   inkscape:connector-curvature="0" />
	<circle
   fill="#03E2F9"
   stroke="#03E2F9"
   stroke-width="0.5"
   stroke-miterlimit="10"
   cx="314.354"
   cy="326.784"
   r="1.135"
   id="circle963" />
	<path
   fill="#03E2F9"
   stroke="#03E2F9"
   stroke-width="0.5"
   stroke-miterlimit="10"
   d="m 331.017,294.35 c 0.808,0.129 1.354,0.888 1.224,1.693 -0.129,0.806 -0.887,1.353 -1.69,1.226 -0.805,-0.129 -1.356,-0.888 -1.226,-1.693 0.128,-0.806 0.888,-1.354 1.692,-1.226 z"
   id="path965"
   inkscape:connector-curvature="0" />
	<circle
   fill="#03E2F9"
   stroke="#03E2F9"
   stroke-width="0.5"
   stroke-miterlimit="10"
   cx="323.58301"
   cy="294.91901"
   r="1.136"
   id="circle967" />
	<circle
   fill="#03E2F9"
   stroke="#03E2F9"
   stroke-width="0.5"
   stroke-miterlimit="10"
   cx="327.81299"
   cy="292.99399"
   r="1.178"
   id="circle969" />
	<path
   fill="#03E2F9"
   stroke="#03E2F9"
   stroke-width="0.5"
   stroke-miterlimit="10"
   d="m 330.073,290.857 c -0.039,-0.626 0.435,-1.167 1.062,-1.207 0.623,-0.039 1.164,0.437 1.205,1.061 0.039,0.625 -0.438,1.166 -1.061,1.206 -0.627,0.041 -1.168,-0.436 -1.206,-1.06 z"
   id="path971"
   inkscape:connector-curvature="0" />
	<circle
   fill="#03E2F9"
   stroke="#03E2F9"
   stroke-width="0.5"
   stroke-miterlimit="10"
   cx="334.17499"
   cy="290.38501"
   r="0.95599997"
   id="circle973" />
	<path
   fill="#03E2F9"
   stroke="#03E2F9"
   stroke-width="0.5"
   stroke-miterlimit="10"
   d="m 322.17,280.005 c -0.602,-0.166 -0.96,-0.792 -0.793,-1.394 0.167,-0.605 0.792,-0.962 1.396,-0.795 0.604,0.167 0.959,0.794 0.792,1.397 -0.165,0.603 -0.792,0.96 -1.395,0.792 z"
   id="path975"
   inkscape:connector-curvature="0" />
	<circle
   fill="#03E2F9"
   stroke="#03E2F9"
   stroke-width="0.5"
   stroke-miterlimit="10"
   cx="329.10901"
   cy="285.79401"
   r="1.135"
   id="circle977" />
	<path
   fill="#03E2F9"
   stroke="#03E2F9"
   stroke-width="0.5"
   stroke-miterlimit="10"
   d="m 335.41,302.865 c -0.043,-0.626 0.436,-1.164 1.062,-1.204 0.624,-0.04 1.165,0.437 1.203,1.062 0.042,0.624 -0.434,1.165 -1.061,1.204 -0.625,0.04 -1.164,-0.435 -1.204,-1.062 z"
   id="path979"
   inkscape:connector-curvature="0" />
	<circle
   fill="#03E2F9"
   stroke="#03E2F9"
   stroke-width="0.5"
   stroke-miterlimit="10"
   cx="328.89001"
   cy="272.21701"
   r="1.135"
   id="circle981" />
	<circle
   fill="#03E2F9"
   stroke="#03E2F9"
   stroke-width="0.5"
   stroke-miterlimit="10"
   cx="337.84201"
   cy="279.17099"
   r="0.95599997"
   id="circle983" />
	<path
   fill="#03E2F9"
   stroke="#03E2F9"
   stroke-width="0.5"
   stroke-miterlimit="10"
   d="m 345.588,283.118 c 0.109,0.641 -0.32,1.251 -0.959,1.364 -0.641,0.111 -1.25,-0.317 -1.36,-0.957 -0.114,-0.64 0.314,-1.25 0.953,-1.364 0.642,-0.112 1.251,0.319 1.366,0.957 z"
   id="path985"
   inkscape:connector-curvature="0" />
	<circle
   fill="#03E2F9"
   stroke="#03E2F9"
   stroke-width="0.5"
   stroke-miterlimit="10"
   cx="316.51501"
   cy="311.51901"
   r="1.178"
   id="circle987" />
	<circle
   fill="#03E2F9"
   stroke="#03E2F9"
   stroke-width="0.5"
   stroke-miterlimit="10"
   cx="325.81201"
   cy="313.66501"
   r="0.95700002"
   id="circle989" />
	<path
   fill="#03E2F9"
   stroke="#03E2F9"
   stroke-width="0.5"
   stroke-miterlimit="10"
   d="m 331.242,300.207 c 0.645,0.104 1.077,0.708 0.978,1.349 -0.104,0.644 -0.707,1.079 -1.349,0.977 -0.642,-0.104 -1.079,-0.706 -0.976,-1.349 0.105,-0.641 0.709,-1.078 1.347,-0.977 z"
   id="path991"
   inkscape:connector-curvature="0" />
	<path
   fill="#03E2F9"
   stroke="#03E2F9"
   stroke-width="0.5"
   stroke-miterlimit="10"
   d="m 317.518,316.861 c 0.643,0.103 1.076,0.707 0.977,1.348 -0.103,0.641 -0.706,1.079 -1.347,0.977 -0.642,-0.103 -1.08,-0.707 -0.979,-1.349 0.105,-0.64 0.709,-1.078 1.349,-0.976 z"
   id="path993"
   inkscape:connector-curvature="0" />
	<path
   fill="#03E2F9"
   stroke="#03E2F9"
   stroke-width="0.5"
   stroke-miterlimit="10"
   d="m 331.349,284.18 c -0.231,-0.583 0.055,-1.242 0.638,-1.475 0.579,-0.231 1.242,0.056 1.473,0.638 0.231,0.582 -0.053,1.243 -0.638,1.473 -0.583,0.23 -1.245,-0.054 -1.473,-0.636 z"
   id="path995"
   inkscape:connector-curvature="0" />
	<circle
   fill="#03E2F9"
   stroke="#03E2F9"
   stroke-width="0.5"
   stroke-miterlimit="10"
   cx="335.73401"
   cy="274.328"
   r="0.95599997"
   id="circle997" />
	<circle
   fill="#03E2F9"
   stroke="#03E2F9"
   stroke-width="0.5"
   stroke-miterlimit="10"
   cx="341.62601"
   cy="276.60199"
   r="0.95599997"
   id="circle999" />
	<circle
   fill="#03E2F9"
   stroke="#03E2F9"
   stroke-width="0.5"
   stroke-miterlimit="10"
   cx="339.04501"
   cy="283.767"
   r="0.95599997"
   id="circle1001" />
	<path
   fill="#03E2F9"
   stroke="#03E2F9"
   stroke-width="0.5"
   stroke-miterlimit="10"
   d="m 316.792,323.794 c -0.021,-0.798 0.611,-1.463 1.408,-1.482 0.803,-0.021 1.467,0.61 1.485,1.411 0.022,0.799 -0.608,1.463 -1.409,1.484 -0.798,0.02 -1.464,-0.611 -1.484,-1.413 z"
   id="path1003"
   inkscape:connector-curvature="0" />
</g>
</svg>
