<?xml version="1.0" encoding="UTF-8" standalone="no"?>
<svg
   xmlns:dc="http://purl.org/dc/elements/1.1/"
   xmlns:cc="http://creativecommons.org/ns#"
   xmlns:rdf="http://www.w3.org/1999/02/22-rdf-syntax-ns#"
   xmlns:svg="http://www.w3.org/2000/svg"
   xmlns="http://www.w3.org/2000/svg"
   xmlns:sodipodi="http://sodipodi.sourceforge.net/DTD/sodipodi-0.dtd"
   xmlns:inkscape="http://www.inkscape.org/namespaces/inkscape"
   inkscape:version="1.0beta2 (2b71d25, 2019-12-03)"
   sodipodi:docname="icon.svg"
   xml:space="preserve"
   enable-background="new 0 0 841.89 595.28"
   viewBox="300 260 1024 1023.9999"
   height="1024"
   width="1024"
   y="0px"
   x="0px"
   id="Layer_1"
   version="1.1"><metadata
   id="metadata1012"><rdf:RDF><cc:Work
       rdf:about=""><dc:format>image/svg+xml</dc:format><dc:type
         rdf:resource="http://purl.org/dc/dcmitype/StillImage" /><dc:title></dc:title></cc:Work></rdf:RDF></metadata><defs
   id="defs1010" /><sodipodi:namedview
   inkscape:current-layer="g851"
   inkscape:window-maximized="0"
   inkscape:window-y="25"
   inkscape:window-x="0"
   inkscape:cy="565.71007"
   inkscape:cx="318.06653"
   inkscape:zoom="0.39911952"
   showgrid="false"
   id="namedview1008"
   inkscape:window-height="1104"
   inkscape:window-width="1509"
   inkscape:pageshadow="2"
   inkscape:pageopacity="0"
   guidetolerance="10"
   gridtolerance="10"
   objecttolerance="10"
   borderopacity="1"
   inkscape:document-rotation="0"
   bordercolor="#666666"
   pagecolor="#ffffff" />
<g
   id="g851">
	<path
   style="stroke-width:4.90663"
   inkscape:connector-curvature="0"
   id="path833"
   d="m 562.94382,685.17148 c 21.72656,0 41.33345,16.60404 41.33345,45.56787 0,28.7872 -19.60689,45.38633 -41.33345,45.38633 -21.54501,0 -41.1519,-16.59913 -41.1519,-45.38633 0,-28.96874 19.60689,-45.56787 41.1519,-45.56787 z m 0,74.35507 c 12.71798,0 20.49008,-11.48152 20.49008,-28.7872 0,-17.48232 -7.7721,-28.96383 -20.49008,-28.96383 -12.71308,0 -20.30854,11.48151 -20.30854,28.96383 0,17.30568 7.59546,28.7872 20.30854,28.7872 z"
   fill="#03E2F9" />
	<path
   style="stroke-width:4.90663"
   inkscape:connector-curvature="0"
   id="path835"
   d="m 658.3287,685.17148 c 11.12824,0 19.60198,4.41597 25.43106,10.06841 l -9.71022,12.89462 c -4.5926,-4.06269 -9.18521,-6.35899 -14.6561,-6.35899 -13.95446,0 -23.66468,11.48151 -23.66468,28.96383 0,17.30568 9.53358,28.7872 23.13476,28.7872 7.06555,0 13.07126,-3.53278 17.84051,-7.41883 l 8.47865,12.88972 c -8.12047,7.24709 -18.54215,11.12824 -28.43392,11.12824 -23.66467,0 -41.85845,-16.59913 -41.85845,-45.38633 -0.01,-28.96874 20.29872,-45.56787 43.43839,-45.56787 z"
   fill="#03E2F9" />
	<path
   style="stroke-width:4.90663"
   inkscape:connector-curvature="0"
   id="path837"
   d="m 732.16366,685.17148 c 23.49295,0 35.85765,16.95731 35.85765,41.15191 0,3.88605 -0.35328,7.41882 -0.88319,9.53848 h -55.10636 c 1.76639,15.72084 11.65815,24.54787 25.61261,24.54787 7.41882,0 13.77781,-2.2963 20.13681,-6.35408 l 6.8889,12.71798 c -8.30201,5.47089 -18.72369,9.35204 -29.67529,9.35204 -24.02286,0 -42.74165,-16.77577 -42.74165,-45.38633 -0.005,-28.26218 19.60198,-45.56787 39.91052,-45.56787 z m 18.19379,37.79577 c 0,-13.77782 -5.82908,-22.07983 -17.66387,-22.07983 -10.24504,0 -19.07698,7.59546 -20.83846,22.07983 z"
   fill="#03E2F9" />
	<path
   style="stroke-width:4.90663"
   inkscape:connector-curvature="0"
   id="path839"
   d="m 829.49157,718.55128 c -0.17664,-9.18521 -4.06269,-16.95731 -15.71594,-16.95731 -8.6602,0 -16.78067,3.88605 -24.37613,8.47866 l -7.41883,-13.60118 c 9.53358,-6.00571 21.72656,-11.30487 35.49947,-11.30487 21.72165,0 32.31997,13.2479 32.31997,37.44249 v 51.39204 h -16.60404 l -1.58974,-9.53359 h -0.52501 c -7.77211,6.53564 -16.60404,11.65325 -26.84908,11.65325 -15.19093,0 -25.78434,-10.24014 -25.78434,-25.43106 0.005,-18.53725 15.5442,-28.25238 51.04367,-32.13843 z m -18.90034,41.68182 c 7.06064,0 12.54135,-3.53768 18.90034,-9.53849 v -19.42534 c -23.48804,3.00286 -31.26014,9.18521 -31.26014,17.8405 0,7.7672 5.12252,11.12333 12.3598,11.12333 z"
   fill="#03E2F9" />
	<path
   style="stroke-width:4.90663"
   inkscape:connector-curvature="0"
   id="path841"
   d="m 869.41681,687.29115 h 16.77577 l 1.41311,11.65815 h 0.71146 c 7.7672,-7.59546 16.59913,-13.77782 28.43392,-13.77782 18.54215,0 26.67244,12.54135 26.67244,34.44454 v 54.3949 H 923.11006 V 722.2607 c 0,-14.30774 -4.06269,-19.60199 -13.59627,-19.60199 -7.59546,0 -12.54134,3.70941 -19.77862,10.77005 v 60.57725 h -20.31345 v -86.71486 z"
   fill="#03E2F9" />
	<path
   style="stroke-width:4.90663"
   inkscape:connector-curvature="0"
   id="path843"
   d="m 1002.5975,751.04789 c 7.7721,6.00572 15.1909,9.71022 24.0228,9.71022 9.357,0 13.7778,-4.41596 13.7778,-10.42168 0,-7.24218 -9.3618,-10.42168 -18.5421,-13.95445 -11.4815,-4.23933 -24.37615,-10.77496 -24.37615,-25.25443 0,-15.19092 12.18315,-25.96588 31.61345,-25.96588 12.0065,0 21.7265,4.94588 28.7872,10.42168 l -9.3619,12.36471 c -6.0057,-4.41597 -12.1832,-7.41883 -19.0721,-7.41883 -8.6553,0 -12.7179,4.06269 -12.7179,9.53849 0,6.71227 8.6553,9.53849 18.0122,12.88972 11.8348,4.41596 24.906,10.0684 24.906,26.31425 0,14.83274 -11.8347,26.84417 -33.7379,26.84417 -11.8299,0 -24.3713,-5.11761 -32.84502,-12.00652 z"
   fill="#03E2F9" />
	<path
   style="stroke-width:4.90663"
   inkscape:connector-curvature="0"
   id="path845"
   d="m 1112.9917,685.17148 c 11.1283,0 19.602,4.41597 25.4311,10.06841 l -9.7102,12.89462 c -4.5926,-4.06269 -9.1852,-6.35899 -14.6561,-6.35899 -13.9545,0 -23.6647,11.48151 -23.6647,28.96383 0,17.30568 9.5336,28.7872 23.1347,28.7872 7.0656,0 13.0713,-3.53278 17.8406,-7.41883 l 8.4786,12.88972 c -8.1205,7.24709 -18.5421,11.12824 -28.4339,11.12824 -23.6647,0 -41.8585,-16.59913 -41.8585,-45.38633 -0.01,-28.96874 20.2988,-45.56787 43.4384,-45.56787 z"
   fill="#03E2F9" />
	<path
   style="stroke-width:4.90663"
   inkscape:connector-curvature="0"
   id="path847"
   d="m 1199.368,718.55128 c -0.1766,-9.18521 -4.0627,-16.95731 -15.7159,-16.95731 -8.6602,0 -16.7807,3.88605 -24.3761,8.47866 l -7.4189,-13.60118 c 9.5336,-6.00571 21.7266,-11.30487 35.4995,-11.30487 21.7217,0 32.32,13.2479 32.32,37.44249 v 51.39204 h -16.6041 l -1.5897,-9.53359 h -0.525 c -7.7721,6.53564 -16.6041,11.65325 -26.8491,11.65325 -15.1909,0 -25.7843,-10.24014 -25.7843,-25.43106 0,-18.53725 15.5393,-28.25238 51.0436,-32.13843 z m -18.9003,41.68182 c 7.0606,0 12.5413,-3.53768 18.9003,-9.53849 v -19.42534 c -23.488,3.00286 -31.2601,9.18521 -31.2601,17.8405 0,7.7672 5.1225,11.12333 12.3598,11.12333 z"
   fill="#03E2F9" />
	<path
   style="stroke-width:4.90663"
   inkscape:connector-curvature="0"
   id="path849"
   d="m 1239.1166,687.29115 h 16.7758 l 1.4131,11.65815 h 0.7115 c 7.7672,-7.59546 16.5991,-13.77782 28.4339,-13.77782 18.5421,0 26.6724,12.54135 26.6724,34.44454 v 54.3949 h -20.3134 V 722.2607 c 0,-14.30774 -4.0627,-19.60199 -13.5963,-19.60199 -7.5954,0 -12.5413,3.70941 -19.7786,10.77005 v 60.57725 h -20.3135 v -86.71486 z"
   fill="#03E2F9" />
</g>
<g
   transform="matrix(4.9066296,0,0,4.9066296,-1208.217,-711.45646)"
   id="g927">
	<path
   inkscape:connector-curvature="0"
   id="path853"
   d="m 352.624,311.685 h 0.9 l 1.154,3.201 0.428,1.219 h 0.036 l 0.419,-1.219 1.146,-3.201 h 0.892 v 5.966 h -0.719 v -3.283 c 0,-0.527 0.063,-1.236 0.1,-1.764 h -0.036 l -0.473,1.327 -1.146,3.12 h -0.438 l -1.146,-3.12 -0.473,-1.327 h -0.036 c 0.036,0.527 0.091,1.236 0.091,1.764 v 3.283 h -0.7 v -5.966 z"
   fill="#03E2F9" />
	<path
   inkscape:connector-curvature="0"
   id="path855"
   d="m 361.559,314.85 c 0,-0.564 -0.191,-1.109 -0.91,-1.109 -0.519,0 -0.973,0.236 -1.318,0.473 l -0.3,-0.519 c 0.409,-0.264 1.027,-0.573 1.736,-0.573 1.083,0 1.537,0.719 1.537,1.819 v 2.71 h -0.618 l -0.063,-0.527 h -0.019 c -0.428,0.346 -0.918,0.637 -1.464,0.637 -0.746,0 -1.301,-0.464 -1.301,-1.256 0,-0.964 0.837,-1.446 2.72,-1.655 z m -1.21,2.309 c 0.428,0 0.782,-0.209 1.21,-0.591 v -1.229 c -1.482,0.183 -1.983,0.547 -1.983,1.109 -0.001,0.502 0.336,0.711 0.773,0.711 z"
   fill="#03E2F9" />
	<path
   inkscape:connector-curvature="0"
   id="path857"
   d="m 363.626,313.23 h 0.618 l 0.063,0.801 h 0.027 c 0.3,-0.555 0.755,-0.91 1.255,-0.91 0.191,0 0.327,0.027 0.473,0.092 l -0.146,0.654 c -0.146,-0.045 -0.245,-0.072 -0.427,-0.072 -0.373,0 -0.818,0.272 -1.119,1.018 v 2.838 h -0.745 v -4.421 z"
   fill="#03E2F9" />
	<path
   inkscape:connector-curvature="0"
   id="path859"
   d="m 366.556,311.84 c 0,-0.291 0.228,-0.482 0.519,-0.482 0.291,0 0.519,0.191 0.519,0.482 0,0.281 -0.228,0.481 -0.519,0.481 -0.291,0 -0.519,-0.2 -0.519,-0.481 z m 0.136,1.39 h 0.745 v 4.42 h -0.745 z"
   fill="#03E2F9" />
	<path
   inkscape:connector-curvature="0"
   id="path861"
   d="m 368.84,313.23 h 0.618 l 0.063,0.637 h 0.027 c 0.418,-0.418 0.873,-0.746 1.482,-0.746 0.928,0 1.346,0.601 1.346,1.729 v 2.801 h -0.745 v -2.701 c 0,-0.828 -0.255,-1.182 -0.837,-1.182 -0.455,0 -0.764,0.236 -1.21,0.682 v 3.201 h -0.745 v -4.421 z"
   fill="#03E2F9" />
	<path
   inkscape:connector-curvature="0"
   id="path863"
   d="m 375.382,313.121 c 1.127,0 1.764,0.81 1.764,2.074 0,0.154 -0.009,0.3 -0.027,0.408 h -2.982 c 0.055,0.955 0.627,1.556 1.473,1.556 0.419,0 0.773,-0.136 1.101,-0.345 l 0.264,0.49 c -0.382,0.246 -0.854,0.455 -1.455,0.455 -1.182,0 -2.119,-0.864 -2.119,-2.311 -0.003,-1.444 0.971,-2.327 1.981,-2.327 z m 1.109,1.992 c 0,-0.9 -0.4,-1.4 -1.092,-1.4 -0.618,0 -1.182,0.509 -1.273,1.4 z"
   fill="#03E2F9" />
	<path
   inkscape:connector-curvature="0"
   id="path865"
   d="m 379.896,311.176 h 0.745 v 5.639 c 0,0.236 0.101,0.326 0.209,0.326 0.046,0 0.082,0 0.164,-0.018 l 0.1,0.564 c -0.1,0.045 -0.227,0.072 -0.427,0.072 -0.564,0 -0.791,-0.355 -0.791,-1 z"
   fill="#03E2F9" />
	<path
   inkscape:connector-curvature="0"
   id="path867"
   d="m 381.989,311.84 c 0,-0.291 0.228,-0.482 0.519,-0.482 0.291,0 0.519,0.191 0.519,0.482 0,0.281 -0.228,0.481 -0.519,0.481 -0.291,0 -0.519,-0.2 -0.519,-0.481 z m 0.137,1.39 h 0.745 v 4.42 h -0.745 z"
   fill="#03E2F9" />
	<path
   inkscape:connector-curvature="0"
   id="path869"
   d="m 384.4,313.84 h -0.655 v -0.564 l 0.691,-0.045 0.091,-1.236 h 0.628 v 1.236 h 1.191 v 0.609 h -1.191 v 2.455 c 0,0.546 0.173,0.855 0.682,0.855 0.155,0 0.355,-0.064 0.501,-0.119 l 0.146,0.564 c -0.246,0.082 -0.546,0.164 -0.819,0.164 -0.945,0 -1.264,-0.601 -1.264,-1.474 v -2.445 z"
   fill="#03E2F9" />
	<path
   inkscape:connector-curvature="0"
   id="path871"
   d="m 387.385,313.84 h -0.655 v -0.564 l 0.691,-0.045 0.091,-1.236 h 0.628 v 1.236 h 1.191 v 0.609 h -1.191 v 2.455 c 0,0.546 0.173,0.855 0.682,0.855 0.155,0 0.355,-0.064 0.501,-0.119 l 0.146,0.564 c -0.246,0.082 -0.546,0.164 -0.819,0.164 -0.945,0 -1.264,-0.601 -1.264,-1.474 v -2.445 z"
   fill="#03E2F9" />
	<path
   inkscape:connector-curvature="0"
   id="path873"
   d="m 391.806,313.121 c 1.128,0 1.765,0.81 1.765,2.074 0,0.154 -0.009,0.3 -0.027,0.408 h -2.982 c 0.055,0.955 0.627,1.556 1.473,1.556 0.419,0 0.773,-0.136 1.101,-0.345 l 0.264,0.49 c -0.382,0.246 -0.854,0.455 -1.455,0.455 -1.182,0 -2.119,-0.864 -2.119,-2.311 -0.003,-1.444 0.971,-2.327 1.98,-2.327 z m 1.11,1.992 c 0,-0.9 -0.4,-1.4 -1.092,-1.4 -0.618,0 -1.183,0.509 -1.273,1.4 z"
   fill="#03E2F9" />
	<path
   inkscape:connector-curvature="0"
   id="path875"
   d="m 394.574,313.23 h 0.618 l 0.063,0.801 h 0.027 c 0.3,-0.555 0.755,-0.91 1.255,-0.91 0.191,0 0.327,0.027 0.473,0.092 l -0.146,0.654 c -0.146,-0.045 -0.245,-0.072 -0.427,-0.072 -0.373,0 -0.818,0.272 -1.119,1.018 v 2.838 h -0.745 v -4.421 z"
   fill="#03E2F9" />
	<path
   inkscape:connector-curvature="0"
   id="path877"
   d="m 400.988,313.121 c 0.509,0 0.846,0.191 1.236,0.51 l -0.036,-0.755 v -1.7 h 0.755 v 6.475 h -0.618 l -0.064,-0.519 h -0.027 c -0.345,0.337 -0.818,0.628 -1.336,0.628 -1.11,0 -1.828,-0.837 -1.828,-2.311 -10e-4,-1.436 0.909,-2.328 1.918,-2.328 z m 0.073,4.011 c 0.409,0 0.764,-0.2 1.128,-0.608 v -2.311 c -0.373,-0.336 -0.709,-0.464 -1.073,-0.464 -0.709,0 -1.273,0.683 -1.273,1.691 -0.001,1.056 0.445,1.692 1.218,1.692 z"
   fill="#03E2F9" />
	<path
   inkscape:connector-curvature="0"
   id="path879"
   d="m 406.849,314.85 c 0,-0.564 -0.191,-1.109 -0.91,-1.109 -0.518,0 -0.973,0.236 -1.318,0.473 l -0.3,-0.519 c 0.409,-0.264 1.027,-0.573 1.736,-0.573 1.083,0 1.537,0.719 1.537,1.819 v 2.71 h -0.618 l -0.063,-0.527 h -0.019 c -0.428,0.346 -0.918,0.637 -1.464,0.637 -0.746,0 -1.301,-0.464 -1.301,-1.256 0,-0.964 0.837,-1.446 2.72,-1.655 z m -1.21,2.309 c 0.428,0 0.782,-0.209 1.21,-0.591 v -1.229 c -1.482,0.183 -1.983,0.547 -1.983,1.109 -10e-4,0.502 0.336,0.711 0.773,0.711 z"
   fill="#03E2F9" />
	<path
   inkscape:connector-curvature="0"
   id="path881"
   d="m 409.042,313.84 h -0.654 v -0.564 l 0.69,-0.045 0.091,-1.236 h 0.628 v 1.236 h 1.191 v 0.609 h -1.191 v 2.455 c 0,0.546 0.173,0.855 0.682,0.855 0.155,0 0.355,-0.064 0.501,-0.119 l 0.146,0.564 c -0.246,0.082 -0.546,0.164 -0.819,0.164 -0.945,0 -1.264,-0.601 -1.264,-1.474 v -2.445 z"
   fill="#03E2F9" />
	<path
   inkscape:connector-curvature="0"
   id="path883"
   d="m 414.237,314.85 c 0,-0.564 -0.191,-1.109 -0.91,-1.109 -0.518,0 -0.973,0.236 -1.318,0.473 l -0.3,-0.519 c 0.409,-0.264 1.027,-0.573 1.736,-0.573 1.083,0 1.537,0.719 1.537,1.819 v 2.71 h -0.618 l -0.063,-0.527 h -0.019 c -0.428,0.346 -0.918,0.637 -1.464,0.637 -0.746,0 -1.301,-0.464 -1.301,-1.256 10e-4,-0.964 0.837,-1.446 2.72,-1.655 z m -1.21,2.309 c 0.428,0 0.782,-0.209 1.21,-0.591 v -1.229 c -1.482,0.183 -1.983,0.547 -1.983,1.109 0,0.502 0.337,0.711 0.773,0.711 z"
   fill="#03E2F9" />
	<path
   inkscape:connector-curvature="0"
   id="path885"
   d="m 416.305,311.176 h 0.745 v 1.764 l -0.018,0.801 c 0.399,-0.355 0.891,-0.619 1.382,-0.619 1.146,0 1.755,0.883 1.755,2.246 0,1.51 -0.9,2.393 -1.909,2.393 -0.409,0 -0.873,-0.2 -1.265,-0.546 h -0.027 l -0.063,0.437 h -0.6 z m 1.827,5.956 c 0.728,0 1.265,-0.663 1.265,-1.755 0,-0.973 -0.327,-1.628 -1.164,-1.628 -0.373,0 -0.764,0.209 -1.183,0.601 v 2.318 c 0.391,0.337 0.791,0.464 1.082,0.464 z"
   fill="#03E2F9" />
	<path
   inkscape:connector-curvature="0"
   id="path887"
   d="m 423.638,314.85 c 0,-0.564 -0.191,-1.109 -0.91,-1.109 -0.518,0 -0.973,0.236 -1.318,0.473 l -0.3,-0.519 c 0.409,-0.264 1.027,-0.573 1.736,-0.573 1.083,0 1.537,0.719 1.537,1.819 v 2.71 h -0.618 l -0.063,-0.527 h -0.019 c -0.428,0.346 -0.918,0.637 -1.464,0.637 -0.746,0 -1.301,-0.464 -1.301,-1.256 0,-0.964 0.837,-1.446 2.72,-1.655 z m -1.21,2.309 c 0.428,0 0.782,-0.209 1.21,-0.591 v -1.229 c -1.482,0.183 -1.983,0.547 -1.983,1.109 -10e-4,0.502 0.336,0.711 0.773,0.711 z"
   fill="#03E2F9" />
	<path
   inkscape:connector-curvature="0"
   id="path889"
   d="m 425.587,316.65 c 0.382,0.309 0.772,0.527 1.3,0.527 0.582,0 0.873,-0.31 0.873,-0.691 0,-0.455 -0.527,-0.654 -1.009,-0.836 -0.628,-0.229 -1.319,-0.528 -1.319,-1.273 0,-0.71 0.564,-1.256 1.519,-1.256 0.555,0 1.037,0.228 1.374,0.5 l -0.355,0.474 c -0.3,-0.228 -0.618,-0.392 -1.009,-0.392 -0.555,0 -0.81,0.301 -0.81,0.637 0,0.41 0.481,0.573 0.982,0.764 0.637,0.236 1.346,0.5 1.346,1.338 0,0.718 -0.573,1.318 -1.619,1.318 -0.627,0 -1.228,-0.264 -1.646,-0.609 z"
   fill="#03E2F9" />
	<path
   inkscape:connector-curvature="0"
   id="path891"
   d="m 431.081,313.121 c 1.128,0 1.765,0.81 1.765,2.074 0,0.154 -0.009,0.3 -0.027,0.408 h -2.982 c 0.055,0.955 0.627,1.556 1.473,1.556 0.419,0 0.773,-0.136 1.101,-0.345 l 0.264,0.49 c -0.382,0.246 -0.854,0.455 -1.455,0.455 -1.182,0 -2.119,-0.864 -2.119,-2.311 -0.002,-1.444 0.971,-2.327 1.98,-2.327 z m 1.11,1.992 c 0,-0.9 -0.4,-1.4 -1.092,-1.4 -0.618,0 -1.183,0.509 -1.273,1.4 z"
   fill="#03E2F9" />
	<path
   inkscape:connector-curvature="0"
   id="path893"
   d="m 437.588,311.785 c -0.164,-0.073 -0.337,-0.109 -0.5,-0.109 -0.419,0 -0.618,0.291 -0.618,0.854 v 0.7 h 0.937 v 0.609 h -0.937 v 3.811 h -0.746 v -3.811 h -0.601 v -0.564 l 0.601,-0.045 v -0.7 c 0,-0.9 0.409,-1.464 1.291,-1.464 0.273,0 0.537,0.063 0.737,0.145 z"
   fill="#03E2F9" />
	<path
   inkscape:connector-curvature="0"
   id="path895"
   d="m 438.162,313.23 h 0.618 l 0.063,0.801 h 0.027 c 0.3,-0.555 0.755,-0.91 1.255,-0.91 0.191,0 0.327,0.027 0.473,0.092 l -0.146,0.654 c -0.146,-0.045 -0.245,-0.072 -0.427,-0.072 -0.373,0 -0.818,0.272 -1.119,1.018 v 2.838 h -0.745 v -4.421 z"
   fill="#03E2F9" />
	<path
   inkscape:connector-curvature="0"
   id="path897"
   d="m 442.856,313.121 c 1.082,0 2.046,0.846 2.046,2.328 0,1.465 -0.964,2.311 -2.046,2.311 -1.082,0 -2.047,-0.846 -2.047,-2.311 10e-4,-1.482 0.965,-2.328 2.047,-2.328 z m 0,4.02 c 0.764,0 1.272,-0.682 1.272,-1.691 0,-1.018 -0.509,-1.709 -1.272,-1.709 -0.755,0 -1.273,0.691 -1.273,1.709 0,1.009 0.519,1.691 1.273,1.691 z"
   fill="#03E2F9" />
	<path
   inkscape:connector-curvature="0"
   id="path899"
   d="m 445.979,313.23 h 0.618 l 0.063,0.637 h 0.027 c 0.382,-0.418 0.846,-0.746 1.373,-0.746 0.673,0 1.037,0.318 1.219,0.846 0.464,-0.5 0.919,-0.846 1.455,-0.846 0.909,0 1.346,0.601 1.346,1.729 v 2.801 h -0.745 v -2.701 c 0,-0.828 -0.264,-1.182 -0.818,-1.182 -0.346,0 -0.7,0.227 -1.11,0.682 v 3.201 h -0.745 v -2.701 c 0,-0.828 -0.264,-1.182 -0.828,-1.182 -0.327,0 -0.7,0.227 -1.109,0.682 v 3.201 h -0.745 v -4.421 z"
   fill="#03E2F9" />
	<path
   inkscape:connector-curvature="0"
   id="path901"
   d="m 455.224,311.685 h 3.438 v 0.637 h -2.674 v 1.874 h 2.256 v 0.645 h -2.256 v 2.165 h 2.765 v 0.646 h -3.528 v -5.967 z"
   fill="#03E2F9" />
	<path
   inkscape:connector-curvature="0"
   id="path903"
   d="m 462.339,314.85 c 0,-0.564 -0.191,-1.109 -0.91,-1.109 -0.518,0 -0.973,0.236 -1.318,0.473 l -0.3,-0.519 c 0.409,-0.264 1.027,-0.573 1.736,-0.573 1.083,0 1.537,0.719 1.537,1.819 v 2.71 h -0.618 l -0.063,-0.527 h -0.019 c -0.428,0.346 -0.918,0.637 -1.464,0.637 -0.746,0 -1.301,-0.464 -1.301,-1.256 0,-0.964 0.837,-1.446 2.72,-1.655 z m -1.21,2.309 c 0.428,0 0.782,-0.209 1.21,-0.591 v -1.229 c -1.482,0.183 -1.983,0.547 -1.983,1.109 -10e-4,0.502 0.336,0.711 0.773,0.711 z"
   fill="#03E2F9" />
	<path
   inkscape:connector-curvature="0"
   id="path905"
   d="m 464.406,313.23 h 0.618 l 0.063,0.801 h 0.027 c 0.3,-0.555 0.755,-0.91 1.255,-0.91 0.191,0 0.327,0.027 0.473,0.092 l -0.146,0.654 c -0.146,-0.045 -0.245,-0.072 -0.427,-0.072 -0.373,0 -0.818,0.272 -1.119,1.018 v 2.838 h -0.745 v -4.421 z"
   fill="#03E2F9" />
	<path
   inkscape:connector-curvature="0"
   id="path907"
   d="m 467.6,313.84 h -0.655 v -0.564 l 0.691,-0.045 0.091,-1.236 h 0.628 v 1.236 h 1.191 v 0.609 h -1.191 v 2.455 c 0,0.546 0.173,0.855 0.682,0.855 0.155,0 0.355,-0.064 0.501,-0.119 l 0.146,0.564 c -0.246,0.082 -0.546,0.164 -0.819,0.164 -0.945,0 -1.264,-0.601 -1.264,-1.474 v -2.445 z"
   fill="#03E2F9" />
	<path
   inkscape:connector-curvature="0"
   id="path909"
   d="m 470.458,311.176 h 0.745 v 1.764 l -0.027,0.91 c 0.419,-0.4 0.864,-0.729 1.474,-0.729 0.928,0 1.346,0.601 1.346,1.729 v 2.801 h -0.745 v -2.701 c 0,-0.828 -0.255,-1.182 -0.837,-1.182 -0.455,0 -0.764,0.236 -1.21,0.682 v 3.201 h -0.745 v -6.475 z"
   fill="#03E2F9" />
	<path
   inkscape:connector-curvature="0"
   id="path911"
   d="m 479.565,314.85 c 0,-0.564 -0.191,-1.109 -0.91,-1.109 -0.518,0 -0.973,0.236 -1.318,0.473 l -0.3,-0.519 c 0.409,-0.264 1.027,-0.573 1.736,-0.573 1.083,0 1.537,0.719 1.537,1.819 v 2.71 h -0.618 l -0.063,-0.527 h -0.019 c -0.428,0.346 -0.918,0.637 -1.464,0.637 -0.746,0 -1.301,-0.464 -1.301,-1.256 10e-4,-0.964 0.838,-1.446 2.72,-1.655 z m -1.21,2.309 c 0.428,0 0.782,-0.209 1.21,-0.591 v -1.229 c -1.482,0.183 -1.983,0.547 -1.983,1.109 0,0.502 0.337,0.711 0.773,0.711 z"
   fill="#03E2F9" />
	<path
   inkscape:connector-curvature="0"
   id="path913"
   d="m 481.632,313.23 h 0.618 l 0.063,0.637 h 0.027 c 0.418,-0.418 0.873,-0.746 1.482,-0.746 0.928,0 1.346,0.601 1.346,1.729 v 2.801 h -0.745 v -2.701 c 0,-0.828 -0.255,-1.182 -0.837,-1.182 -0.455,0 -0.764,0.236 -1.21,0.682 v 3.201 h -0.745 v -4.421 z"
   fill="#03E2F9" />
	<path
   inkscape:connector-curvature="0"
   id="path915"
   d="m 488.119,313.121 c 0.509,0 0.846,0.191 1.236,0.51 l -0.036,-0.755 v -1.7 h 0.755 v 6.475 h -0.618 l -0.064,-0.519 h -0.027 c -0.345,0.337 -0.818,0.628 -1.336,0.628 -1.11,0 -1.828,-0.837 -1.828,-2.311 -0.001,-1.436 0.908,-2.328 1.918,-2.328 z m 0.072,4.011 c 0.409,0 0.764,-0.2 1.128,-0.608 v -2.311 c -0.373,-0.336 -0.709,-0.464 -1.073,-0.464 -0.709,0 -1.273,0.683 -1.273,1.691 0,1.056 0.446,1.692 1.218,1.692 z"
   fill="#03E2F9" />
	<path
   inkscape:connector-curvature="0"
   id="path917"
   d="m 493.107,316.65 c 0.382,0.309 0.772,0.527 1.3,0.527 0.582,0 0.873,-0.31 0.873,-0.691 0,-0.455 -0.527,-0.654 -1.009,-0.836 -0.628,-0.229 -1.319,-0.528 -1.319,-1.273 0,-0.71 0.564,-1.256 1.519,-1.256 0.556,0 1.037,0.228 1.374,0.5 l -0.355,0.474 c -0.3,-0.228 -0.618,-0.392 -1.009,-0.392 -0.555,0 -0.81,0.301 -0.81,0.637 0,0.41 0.482,0.573 0.982,0.764 0.637,0.236 1.346,0.5 1.346,1.338 0,0.718 -0.573,1.318 -1.619,1.318 -0.627,0 -1.228,-0.264 -1.646,-0.609 z"
   fill="#03E2F9" />
	<path
   inkscape:connector-curvature="0"
   id="path919"
   d="m 497.692,318.023 v 1.492 h -0.745 v -6.285 h 0.618 l 0.063,0.51 h 0.027 c 0.4,-0.337 0.892,-0.619 1.409,-0.619 1.137,0 1.746,0.883 1.746,2.256 0,1.5 -0.9,2.383 -1.909,2.383 -0.409,0 -0.818,-0.191 -1.228,-0.51 z m 1.082,-0.891 c 0.728,0 1.265,-0.663 1.265,-1.755 0,-0.973 -0.327,-1.628 -1.164,-1.628 -0.373,0 -0.746,0.209 -1.183,0.601 v 2.318 c 0.401,0.337 0.791,0.464 1.082,0.464 z"
   fill="#03E2F9" />
	<path
   inkscape:connector-curvature="0"
   id="path921"
   d="m 504.28,314.85 c 0,-0.564 -0.191,-1.109 -0.91,-1.109 -0.518,0 -0.973,0.236 -1.318,0.473 l -0.3,-0.519 c 0.409,-0.264 1.027,-0.573 1.736,-0.573 1.083,0 1.537,0.719 1.537,1.819 v 2.71 h -0.618 l -0.063,-0.527 h -0.019 c -0.428,0.346 -0.918,0.637 -1.464,0.637 -0.746,0 -1.301,-0.464 -1.301,-1.256 10e-4,-0.964 0.837,-1.446 2.72,-1.655 z m -1.21,2.309 c 0.428,0 0.782,-0.209 1.21,-0.591 v -1.229 c -1.482,0.183 -1.983,0.547 -1.983,1.109 0,0.502 0.337,0.711 0.773,0.711 z"
   fill="#03E2F9" />
	<path
   inkscape:connector-curvature="0"
   id="path923"
   d="m 508.147,313.121 c 0.582,0 0.992,0.246 1.292,0.527 l -0.373,0.482 c -0.264,-0.227 -0.536,-0.391 -0.892,-0.391 -0.8,0 -1.382,0.691 -1.382,1.709 0,1.01 0.555,1.691 1.364,1.691 0.418,0 0.772,-0.209 1.036,-0.445 l 0.337,0.491 c -0.4,0.354 -0.909,0.573 -1.437,0.573 -1.174,0 -2.074,-0.846 -2.074,-2.311 0.002,-1.48 0.993,-2.326 2.129,-2.326 z"
   fill="#03E2F9" />
	<path
   inkscape:connector-curvature="0"
   id="path925"
   d="m 511.87,313.121 c 1.127,0 1.764,0.81 1.764,2.074 0,0.154 -0.009,0.3 -0.027,0.408 h -2.982 c 0.055,0.955 0.627,1.556 1.473,1.556 0.419,0 0.773,-0.136 1.101,-0.345 l 0.264,0.49 c -0.382,0.246 -0.854,0.455 -1.455,0.455 -1.182,0 -2.119,-0.864 -2.119,-2.311 -0.002,-1.444 0.971,-2.327 1.981,-2.327 z m 1.109,1.992 c 0,-0.9 -0.4,-1.4 -1.092,-1.4 -0.618,0 -1.182,0.509 -1.273,1.4 z"
   fill="#03E2F9" />
</g>
<g
   transform="matrix(4.9066296,0,0,4.9066296,-1208.217,-711.45646)"
   id="g1005">
	<path
   inkscape:connector-curvature="0"
   id="path929"
   d="m 329.525,322.752 c -0.05,-0.797 0.556,-1.486 1.354,-1.535 0.8,-0.052 1.486,0.555 1.537,1.352 0.052,0.801 -0.555,1.487 -1.354,1.538 -0.797,0.049 -1.485,-0.556 -1.537,-1.355 z"
   stroke-miterlimit="10"
   stroke-width="0.5"
   stroke="#03E2F9"
   fill="#03E2F9" />
	<circle
   id="circle931"
   r="1.177"
   cy="314.836"
   cx="332.146"
   stroke-miterlimit="10"
   stroke-width="0.5"
   stroke="#03E2F9"
   fill="#03E2F9" />
	<path
   inkscape:connector-curvature="0"
   id="path933"
   d="m 309.524,319.696 c -0.021,-0.798 0.611,-1.463 1.408,-1.482 0.803,-0.021 1.467,0.61 1.485,1.411 0.022,0.799 -0.608,1.463 -1.409,1.484 -0.798,0.02 -1.464,-0.611 -1.484,-1.413 z"
   stroke-miterlimit="10"
   stroke-width="0.5"
   stroke="#03E2F9"
   fill="#03E2F9" />
	<circle
   id="circle935"
   r="0.95499998"
   cy="309.98001"
   cx="331.17099"
   stroke-miterlimit="10"
   stroke-width="0.5"
   stroke="#03E2F9"
   fill="#03E2F9" />
	<path
   inkscape:connector-curvature="0"
   id="path937"
   d="m 330.499,279.843 c -0.04,-0.624 0.435,-1.165 1.059,-1.206 0.628,-0.039 1.168,0.436 1.208,1.063 0.039,0.625 -0.437,1.166 -1.062,1.205 -0.626,0.038 -1.166,-0.437 -1.205,-1.062 z"
   stroke-miterlimit="10"
   stroke-width="0.5"
   stroke="#03E2F9"
   fill="#03E2F9" />
	<circle
   id="circle939"
   r="1.136"
   cy="305.797"
   cx="321.995"
   stroke-miterlimit="10"
   stroke-width="0.5"
   stroke="#03E2F9"
   fill="#03E2F9" />
	<circle
   id="circle941"
   r="1.135"
   cy="307.49399"
   cx="327.90399"
   stroke-miterlimit="10"
   stroke-width="0.5"
   stroke="#03E2F9"
   fill="#03E2F9" />
	<circle
   id="circle943"
   r="1.447"
   cy="310.35699"
   cx="338.31201"
   stroke-miterlimit="10"
   stroke-width="0.5"
   stroke="#03E2F9"
   fill="#03E2F9" />
	<circle
   id="circle945"
   r="1.63"
   cy="291.91199"
   cx="339.47198"
   stroke-miterlimit="10"
   stroke-width="0.5"
   stroke="#03E2F9"
   fill="#03E2F9" />
	<circle
   id="circle947"
   r="1.136"
   cy="289.29401"
   cx="323.293"
   stroke-miterlimit="10"
   stroke-width="0.5"
   stroke="#03E2F9"
   fill="#03E2F9" />
	<circle
   id="circle949"
   r="1.177"
   cy="309.13501"
   cx="324.89999"
   stroke-miterlimit="10"
   stroke-width="0.5"
   stroke="#03E2F9"
   fill="#03E2F9" />
	<path
   inkscape:connector-curvature="0"
   id="path951"
   d="m 335.888,266.335 c -0.509,-0.138 -0.808,-0.667 -0.666,-1.174 0.138,-0.509 0.666,-0.809 1.173,-0.669 0.511,0.139 0.811,0.669 0.669,1.176 -0.14,0.51 -0.666,0.809 -1.176,0.667 z"
   stroke-miterlimit="10"
   stroke-width="0.5"
   stroke="#03E2F9"
   fill="#03E2F9" />
	<path
   inkscape:connector-curvature="0"
   id="path953"
   d="m 315.169,303.506 c -0.602,-0.166 -0.957,-0.792 -0.792,-1.396 0.167,-0.604 0.792,-0.961 1.398,-0.793 0.603,0.167 0.958,0.792 0.791,1.396 -0.165,0.603 -0.791,0.959 -1.397,0.793 z"
   stroke-miterlimit="10"
   stroke-width="0.5"
   stroke="#03E2F9"
   fill="#03E2F9" />
	<path
   inkscape:connector-curvature="0"
   id="path955"
   d="m 324.883,321.459 c 0.108,0.641 -0.319,1.25 -0.961,1.361 -0.638,0.113 -1.248,-0.316 -1.359,-0.955 -0.112,-0.641 0.316,-1.252 0.954,-1.363 0.641,-0.111 1.252,0.316 1.366,0.957 z"
   stroke-miterlimit="10"
   stroke-width="0.5"
   stroke="#03E2F9"
   fill="#03E2F9" />
	<circle
   id="circle957"
   r="0.95599997"
   cy="299.258"
   cx="321.80701"
   stroke-miterlimit="10"
   stroke-width="0.5"
   stroke="#03E2F9"
   fill="#03E2F9" />
	<path
   inkscape:connector-curvature="0"
   id="path959"
   d="m 344.239,272.925 c 0.108,0.616 -0.306,1.206 -0.923,1.313 -0.617,0.107 -1.205,-0.306 -1.315,-0.922 -0.105,-0.617 0.306,-1.206 0.922,-1.314 0.619,-0.107 1.208,0.306 1.316,0.923 z"
   stroke-miterlimit="10"
   stroke-width="0.5"
   stroke="#03E2F9"
   fill="#03E2F9" />
	<path
   inkscape:connector-curvature="0"
   id="path961"
   d="m 328.415,301.727 c 0.522,0.082 0.877,0.574 0.792,1.095 -0.084,0.521 -0.572,0.876 -1.096,0.794 -0.52,-0.084 -0.874,-0.577 -0.791,-1.096 0.081,-0.522 0.575,-0.878 1.095,-0.793 z"
   stroke-miterlimit="10"
   stroke-width="0.5"
   stroke="#03E2F9"
   fill="#03E2F9" />
	<circle
   id="circle963"
   r="1.135"
   cy="326.784"
   cx="314.354"
   stroke-miterlimit="10"
   stroke-width="0.5"
   stroke="#03E2F9"
   fill="#03E2F9" />
	<path
   inkscape:connector-curvature="0"
   id="path965"
   d="m 331.017,294.35 c 0.808,0.129 1.354,0.888 1.224,1.693 -0.129,0.806 -0.887,1.353 -1.69,1.226 -0.805,-0.129 -1.356,-0.888 -1.226,-1.693 0.128,-0.806 0.888,-1.354 1.692,-1.226 z"
   stroke-miterlimit="10"
   stroke-width="0.5"
   stroke="#03E2F9"
   fill="#03E2F9" />
	<circle
   id="circle967"
   r="1.136"
   cy="294.91901"
   cx="323.58301"
   stroke-miterlimit="10"
   stroke-width="0.5"
   stroke="#03E2F9"
   fill="#03E2F9" />
	<circle
   id="circle969"
   r="1.178"
   cy="292.99399"
   cx="327.81299"
   stroke-miterlimit="10"
   stroke-width="0.5"
   stroke="#03E2F9"
   fill="#03E2F9" />
	<path
   inkscape:connector-curvature="0"
   id="path971"
   d="m 330.073,290.857 c -0.039,-0.626 0.435,-1.167 1.062,-1.207 0.623,-0.039 1.164,0.437 1.205,1.061 0.039,0.625 -0.438,1.166 -1.061,1.206 -0.627,0.041 -1.168,-0.436 -1.206,-1.06 z"
   stroke-miterlimit="10"
   stroke-width="0.5"
   stroke="#03E2F9"
   fill="#03E2F9" />
	<circle
   id="circle973"
   r="0.95599997"
   cy="290.38501"
   cx="334.17499"
   stroke-miterlimit="10"
   stroke-width="0.5"
   stroke="#03E2F9"
   fill="#03E2F9" />
	<path
   inkscape:connector-curvature="0"
   id="path975"
   d="m 322.17,280.005 c -0.602,-0.166 -0.96,-0.792 -0.793,-1.394 0.167,-0.605 0.792,-0.962 1.396,-0.795 0.604,0.167 0.959,0.794 0.792,1.397 -0.165,0.603 -0.792,0.96 -1.395,0.792 z"
   stroke-miterlimit="10"
   stroke-width="0.5"
   stroke="#03E2F9"
   fill="#03E2F9" />
	<circle
   id="circle977"
   r="1.135"
   cy="285.79401"
   cx="329.10901"
   stroke-miterlimit="10"
   stroke-width="0.5"
   stroke="#03E2F9"
   fill="#03E2F9" />
	<path
   inkscape:connector-curvature="0"
   id="path979"
   d="m 335.41,302.865 c -0.043,-0.626 0.436,-1.164 1.062,-1.204 0.624,-0.04 1.165,0.437 1.203,1.062 0.042,0.624 -0.434,1.165 -1.061,1.204 -0.625,0.04 -1.164,-0.435 -1.204,-1.062 z"
   stroke-miterlimit="10"
   stroke-width="0.5"
   stroke="#03E2F9"
   fill="#03E2F9" />
	<circle
   id="circle981"
   r="1.135"
   cy="272.21701"
   cx="328.89001"
   stroke-miterlimit="10"
   stroke-width="0.5"
   stroke="#03E2F9"
   fill="#03E2F9" />
	<circle
   id="circle983"
   r="0.95599997"
   cy="279.17099"
   cx="337.84201"
   stroke-miterlimit="10"
   stroke-width="0.5"
   stroke="#03E2F9"
   fill="#03E2F9" />
	<path
   inkscape:connector-curvature="0"
   id="path985"
   d="m 345.588,283.118 c 0.109,0.641 -0.32,1.251 -0.959,1.364 -0.641,0.111 -1.25,-0.317 -1.36,-0.957 -0.114,-0.64 0.314,-1.25 0.953,-1.364 0.642,-0.112 1.251,0.319 1.366,0.957 z"
   stroke-miterlimit="10"
   stroke-width="0.5"
   stroke="#03E2F9"
   fill="#03E2F9" />
	<circle
   id="circle987"
   r="1.178"
   cy="311.51901"
   cx="316.51501"
   stroke-miterlimit="10"
   stroke-width="0.5"
   stroke="#03E2F9"
   fill="#03E2F9" />
	<circle
   id="circle989"
   r="0.95700002"
   cy="313.66501"
   cx="325.81201"
   stroke-miterlimit="10"
   stroke-width="0.5"
   stroke="#03E2F9"
   fill="#03E2F9" />
	<path
   inkscape:connector-curvature="0"
   id="path991"
   d="m 331.242,300.207 c 0.645,0.104 1.077,0.708 0.978,1.349 -0.104,0.644 -0.707,1.079 -1.349,0.977 -0.642,-0.104 -1.079,-0.706 -0.976,-1.349 0.105,-0.641 0.709,-1.078 1.347,-0.977 z"
   stroke-miterlimit="10"
   stroke-width="0.5"
   stroke="#03E2F9"
   fill="#03E2F9" />
	<path
   inkscape:connector-curvature="0"
   id="path993"
   d="m 317.518,316.861 c 0.643,0.103 1.076,0.707 0.977,1.348 -0.103,0.641 -0.706,1.079 -1.347,0.977 -0.642,-0.103 -1.08,-0.707 -0.979,-1.349 0.105,-0.64 0.709,-1.078 1.349,-0.976 z"
   stroke-miterlimit="10"
   stroke-width="0.5"
   stroke="#03E2F9"
   fill="#03E2F9" />
	<path
   inkscape:connector-curvature="0"
   id="path995"
   d="m 331.349,284.18 c -0.231,-0.583 0.055,-1.242 0.638,-1.475 0.579,-0.231 1.242,0.056 1.473,0.638 0.231,0.582 -0.053,1.243 -0.638,1.473 -0.583,0.23 -1.245,-0.054 -1.473,-0.636 z"
   stroke-miterlimit="10"
   stroke-width="0.5"
   stroke="#03E2F9"
   fill="#03E2F9" />
	<circle
   id="circle997"
   r="0.95599997"
   cy="274.328"
   cx="335.73401"
   stroke-miterlimit="10"
   stroke-width="0.5"
   stroke="#03E2F9"
   fill="#03E2F9" />
	<circle
   id="circle999"
   r="0.95599997"
   cy="276.60199"
   cx="341.62601"
   stroke-miterlimit="10"
   stroke-width="0.5"
   stroke="#03E2F9"
   fill="#03E2F9" />
	<circle
   id="circle1001"
   r="0.95599997"
   cy="283.767"
   cx="339.04501"
   stroke-miterlimit="10"
   stroke-width="0.5"
   stroke="#03E2F9"
   fill="#03E2F9" />
	<path
   inkscape:connector-curvature="0"
   id="path1003"
   d="m 316.792,323.794 c -0.021,-0.798 0.611,-1.463 1.408,-1.482 0.803,-0.021 1.467,0.61 1.485,1.411 0.022,0.799 -0.608,1.463 -1.409,1.484 -0.798,0.02 -1.464,-0.611 -1.484,-1.413 z"
   stroke-miterlimit="10"
   stroke-width="0.5"
   stroke="#03E2F9"
   fill="#03E2F9" />
</g>
</svg>
